Five brutal killers. One bounty hunter. They are all after the same thing: revenge.
 
http://www.imdb.com/title/tt1558576/

Subs (srt) : Dutch

Een jongedame besluit om hulp in te schakelen van een premiejager. Maar niet om hem het werk te laten doen, ze wil alles van hem leren. Op deze manier kan ze zelf op jacht naar de mannen die haar familie hebben vermoord en haar langverwachte wraak nemen.
 
http://www.moviemeter.nl/film/63522

Ondertitels (srt) : Nederlands.

General
Complete name                    : 6 Guns-AC3-DVDRip 2010 TBS\6 Guns-AC3-DVDRip 2010 TBS.avi
Format                           : AVI
Format/Info                      : Audio Video Interleave
File size                        : 1.38 GiB
Duration                         : 1h 35mn
Overall bit rate                 : 2 069 Kbps
Writing application              : VirtualDubMod 1.5.4.1 (build 2178/release)
Writing library                  : VirtualDubMod build 2178/release
Source                           : 6.Guns.2010.NTSC.DVDR-SADPANDA

Video
ID                               : 0
Format                           : MPEG-4 Visual
Format profile                   : Simple@L3
Format settings, BVOP            : No
Format settings, QPel            : No
Format settings, GMC             : No warppoints
Format settings, Matrix          : Default (H.263)
Codec ID                         : XVID
Codec ID/Hint                    : XviD
Duration                         : 1h 35mn
Bit rate                         : 1 611 Kbps
Width                            : 720 pixels
Height                           : 400 pixels
Display aspect ratio             : 16:9
Frame rate                       : 23.976 fps
Resolution                       : 8 bits
Colorimetry                      : 4:2:0
Scan type                        : Progressive
Bits/(Pixel*Frame)               : 0.233
Stream size                      : 1.08 GiB (78%)
Writing library                  : XviD 1.1.2 (UTC 2006-11-01)

Audio
ID                               : 1
Format                           : AC-3
Format/Info                      : Audio Coding 3
Codec ID                         : 2000
Duration                         : 1h 35mn
Bit rate mode                    : Constant
Bit rate                         : 448 Kbps
Channel(s)                       : 6 channels
Channel positions                : Front: L C R, Surround: L R, LFE
Sampling rate                    : 48.0 KHz
Stream size                      : 306 MiB (22%)
Alignment                        : Split accross interleaves
Interleave, duration             : 42 ms (1.00 video frame)
Interleave, preload duration     : 500 ms

Thanks to Bradje for the source.

Blackbeard  TBS.

Enjoy..